<svg width="12" height="15" viewBox="0 0 12 15" fill="none" xmlns="http://www.w3.org/2000/svg">
<path d="M0.648 14.5V12.43H2.448V5.248C2.448 4.372 2.628 3.61 2.988 2.962C3.36 2.302 3.882 1.792 4.554 1.432C5.238 1.06 6.042 0.873999 6.966 0.873999C7.698 0.873999 8.37 1.012 8.982 1.288C9.606 1.564 10.128 1.954 10.548 2.458C10.968 2.95 11.22 3.538 11.304 4.222L9.144 4.888C9.06 4.288 8.814 3.838 8.406 3.538C8.01 3.226 7.53 3.07 6.966 3.07C6.306 3.07 5.796 3.262 5.436 3.646C5.076 4.018 4.896 4.552 4.896 5.248V12.43H10.71V14.5H0.648ZM0.648 8.434V6.922H8.208V8.434H0.648Z" fill="#133041"/>
</svg>
